#!OML:ASF G:\ViconDB\ViconDB\414\test\team2\shane.ASF
:FULLY-SPECIFIED
:DEGREES
179
root 7.14487 14.3782 -8.02656 66.2564 206.97 -23.9314
lowerback 28.3366 7.75991 5.69672
upperback 8.1013 10.7433 2.28755
thorax -5.71863 4.82352 -4.01965
lowerneck -29.1688 3.55022 2.34429
upperneck 6.62585 4.85939 -9.05842
head 6.91015 1.35036 -2.76373
rclavicle -1.01778e-013 -2.13097e-013
rhumerus 21.2293 -19.5967 -57.4234
rradius 27.374
rwrist 23.8254
rhand -35.8471 -31.3164
rfingers 7.12502
rthumb -8.96227 -421.106
lclavicle -1.01778e-013 -2.13097e-013
lhumerus -49.5812 -0.643685 41.5789
lradius 12.9192
lwrist -0.425653
lhand -38.1964 13.6787
lfingers 7.12502
lthumb -11.2287 43.3582
rfemur -84.5882 -17.2518 20.9791
rtibia 86.4092
rfoot -41.4059 -12.7907
rtoes -20.9301
lfemur -11.3544 11.1339 -19.136
ltibia 37.1696
lfoot -13.3218 -10.6049
ltoes -8.57622
180
root 7.16394 14.4033 -7.84523 64.987 208.26 -24.0862
lowerback 28.0046 7.71082 5.86218
upperback 8.20245 10.6931 2.41916
thorax -5.44644 4.80855 -3.89795
lowerneck -29.452 3.80659 2.53242
upperneck 6.84041 5.17856 -9.23377
head 7.05367 1.47809 -2.80802
rclavicle -2.13097e-013 -1.41535e-013
rhumerus 17.9004 -17.2114 -55.2693
rradius 29.7934
rwrist 25.7315
rhand -36.4025 -29.7069
rfingers 7.12502
rthumb -9.49817 -419.473
lclavicle -2.13097e-013 -1.41535e-013
lhumerus -48.2959 0.0501493 44.6451
lradius 12.7936
lwrist -1.83155
lhand -38.4347 12.4033
lfingers 7.12502
lthumb -11.4585 42.0701
rfemur -83.5724 -17.9377 20.7787
rtibia 85.91
rfoot -40.4301 -11.7648
rtoes -20.2253
lfemur -11.2995 11.964 -19.4367
ltibia 37.2415
lfoot -14.0079 -12.0713
ltoes -9.26241
181
root 7.19246 14.4234 -7.66622 63.8033 209.659 -24.3776
lowerback 27.6289 7.56965 6.0111
upperback 8.25425 10.5279 2.56708
thorax -5.22592 4.73597 -3.71864
lowerneck -29.5513 4.12184 2.67794
upperneck 6.97929 5.57214 -9.28568
head 7.14446 1.66085 -2.79117
rclavicle 7.63333e-014 -8.0309e-014
rhumerus 14.5638 -14.0075 -53.2292
rradius 32.553
rwrist 26.5534
rhand -37.088 -30.3836
rfingers 7.12502
rthumb -10.1595 -420.118
lclavicle 7.63333e-014 -8.0309e-014
lhumerus -47.1673 -1.90506 49.5873
lradius 13.3819
lwrist -0.152521
lhand -38.4658 12.2863
lfingers 7.12502
lthumb -11.4885 41.9515
rfemur -82.4573 -18.603 20.7063
rtibia 85.1532
rfoot -39.4779 -11.6795
rtoes -20.3403
lfemur -11.3161 12.982 -19.498
ltibia 38.0561
lfoot -15.302 -13.7171
ltoes -9.25202
182
root 6.73126 14.6077 -6.53186 20.3999 322.881 28.0027
lowerback -38.7604 48.567 103.854
upperback 3.69566 -0.701616 -16.6409
thorax 11.1288 -0.0476766 -37.0715
lowerneck -1.82718 24.2924 -8.7215
upperneck 1.28764 19.7441 -1.78972
head 175.305 -58.6728 2.75209
rclavicle -7.31528e-014 5.40694e-014
rhumerus -6.20883 4.37615 -27.5721
rradius 35.2972
rwrist -1.50664
rhand -35.1512 -34.7006
rfingers 7.12502
rthumb -8.29065 -424.518
lclavicle 7.63333e-014 -8.0309e-014
lhumerus -47.1673 -1.90506 49.5873
lradius 13.3819
lwrist -0.152521
lhand -38.4658 12.2863
lfingers 7.12502
lthumb -11.4885 41.9515
rfemur 8.52578 -158.909 -17.5104
rtibia 81.6583
rfoot -38.2691 16.8572
rtoes -10.3827
lfemur -80.2253 -12.2785 55.8922
ltibia 37.3223
lfoot -7.02056 -25.4695
ltoes -8.17344
183
root 6.80255 14.6246 -6.32319 22.3904 322.777 25.8549
lowerback -38.8378 48.3656 103.667
upperback 3.44963 -0.905492 -16.5275
thorax 10.6533 -0.359349 -36.8782
lowerneck -1.56482 24.3777 -8.55519
upperneck 1.39193 19.832 -1.70079
head 175.193 -57.69 2.72684
rclavicle 3.18055e-015 -6.04305e-014
rhumerus -7.94062 8.10158 -27.9603
rradius 37.2967
rwrist -2.23633
rhand -35.8801 -36.1175
rfingers 7.12502
rthumb -8.99415 -425.906
lclavicle 7.63333e-014 -8.0309e-014
lhumerus -47.1673 -1.90506 49.5873
lradius 13.3819
lwrist -0.152521
lhand -38.4658 12.2863
lfingers 7.12502
lthumb -11.4885 41.9515
rfemur 9.74082 -157.965 -17.5336
rtibia 80.3495
rfoot -37.9902 14.7084
rtoes -11.2898
lfemur -79.1763 -12.1249 55.8951
ltibia 36.6352
lfoot -7.40297 -24.9829
ltoes -9.81334
184
root 7.6831 13.7993 -6.45166 56.4749 347.453 -12.5391
lowerback -27.1053 53.5547 131.459
upperback 0.838538 -6.91061 -11.8069
thorax 1.22846 -6.73306 -22.9066
lowerneck -1.55882 24.4496 -8.40741
upperneck 1.40009 19.9182 -1.65736
head 175.179 -56.7572 2.67149
rclavicle -9.54166e-015 -3.18055e-014
rhumerus -9.59243 11.1296 -28.4749
rradius 39.4333
rwrist -3.22369
rhand -35.8068 -36.7859
rfingers 7.12502
rthumb -8.92334 -426.577
lclavicle 7.63333e-014 -8.0309e-014
lhumerus -47.1673 -1.90506 49.5873
lradius 13.3819
lwrist -0.152521
lhand -38.4658 12.2863
lfingers 7.12502
lthumb -11.4885 41.9515
rfemur 30.5331 -156.58 19.4092
rtibia 78.6459
rfoot -42.2021 12.3198
rtoes -15.1105
lfemur -69.6068 12.8464 93.0619
ltibia 35.0009
lfoot -6.65585 -35.2295
ltoes -7.25236
185
root 7.74531 13.8083 -6.28104 57.8697 348.885 -14.2175
lowerback -27.3284 53.2561 131.319
upperback 0.548198 -7.46541 -11.3472
thorax 0.645593 -7.11461 -22.1816
lowerneck -1.37915 24.4931 -8.45567
upperneck 1.49244 19.4136 -1.71533
head 175.049 -54.81 2.90953
rclavicle -2.8625e-014 5.725e-014
rhumerus -10.8724 14.1906 -28.7529
rradius 40.8451
rwrist -4.35086
rhand -35.8719 -36.2535
rfingers 7.12502
rthumb -8.98622 -426.042
lclavicle 7.63333e-014 -8.0309e-014
lhumerus -47.1673 -1.90506 49.5873
lradius 13.3819
lwrist -0.152521
lhand -38.4658 12.2863
lfingers 7.12502
lthumb -11.4885 41.9515
rfemur 32.185 -155.53 19.1346
rtibia 77.8049
rfoot -42.1614 8.59454
rtoes -16.4269
lfemur -67.8087 13.0087 94.5543
ltibia 33.7703
lfoot -5.8536 -33.548
ltoes -7.31893
186
root 7.81261 13.8205 -6.10893 59.0316 350.336 -15.7512
lowerback -27.3704 52.7513 131.183
upperback 0.0462973 -7.89522 -10.8432
thorax -0.157121 -7.54559 -21.3941
lowerneck -0.975848 24.5276 -8.64276
upperneck 1.64088 18.8651 -1.79296
head 175.096 -52.9098 3.03301
rclavicle -4.45278e-014 -1.27222e-014
rhumerus -12.0652 17.2219 -28.9248
rradius 41.9191
rwrist -5.68862
rhand -35.8926 -35.4393
rfingers 7.12502
rthumb -9.00616 -425.227
lclavicle 7.63333e-014 -8.0309e-014
lhumerus -47.1673 -1.90506 49.5873
lradius 13.3819
lwrist -0.152521
lhand -38.4658 12.2863
lfingers 7.12502
lthumb -11.4885 41.9515
rfemur 33.8118 -154.383 18.4458
rtibia 76.9707
rfoot -41.7104 5.15601
rtoes -17.2866
lfemur -66.0906 13.1914 95.9512
ltibia 32.515
lfoot -4.73559 -31.7449
ltoes -6.85522
187
root 7.88041 13.8348 -5.94284 60.0061 351.906 -17.2476
lowerback -27.8886 52.5566 130.93
upperback -0.0728129 -8.58601 -10.6155
thorax -0.602422 -7.89906 -21.0203
lowerneck -0.871805 24.5702 -8.62942
upperneck 1.69118 18.8267 -1.78336
head 175.103 -51.7102 2.9814
rclavicle -3.49861e-014 3.49861e-014
rhumerus -13.3326 19.5635 -29.7071
rradius 42.7342
rwrist -7.18239
rhand -36.3159 -35.1063
rfingers 7.12502
rthumb -9.41459 -424.876
lclavicle 7.63333e-014 -8.0309e-014
lhumerus -47.1673 -1.90506 49.5873
lradius 13.3819
lwrist -0.152521
lhand -38.4658 12.2863
lfingers 7.12502
lthumb -11.4885 41.9515
rfemur 35.3113 -153.162 17.6936
rtibia 76.202
rfoot -40.9325 2.30695
rtoes -18.031
lfemur -65.879 13.479 97.2249
ltibia 34.5739
lfoot -6.19083 -30.2906
ltoes -8.0592
188
root 7.94666 13.854 -5.7776 60.9331 353.49 -18.7666
lowerback -28.7022 52.4456 130.457
upperback 0.0262889 -9.48801 -10.2522
thorax -0.785935 -8.18285 -20.4716
lowerneck -1.0449 24.6444 -9.01353
upperneck 1.71059 18.7102 -1.89106
head 175.081 -50.6044 2.96169
rclavicle 1.30403e-013 -7.63333e-014
rhumerus -14.1737 21.7856 -30.1671
rradius 43.2068
rwrist -8.47153
rhand -36.2406 -34.5802
rfingers 7.12502
rthumb -9.34195 -424.353
lclavicle 7.63333e-014 -8.0309e-014
lhumerus -47.1673 -1.90506 49.5873
lradius 13.3819
lwrist -0.152521
lhand -38.4658 12.2863
lfingers 7.12502
lthumb -11.4885 41.9515
rfemur 36.921 -151.886 16.7577
rtibia 75.5566
rfoot -40.0496 -0.362592
rtoes -18.5266
lfemur -67.0503 13.9192 98.4496
ltibia 39.9517
lfoot -8.94617 -29.4473
ltoes -7.67858
189
root 8.0135 13.8601 -5.60704 61.9946 355.311 -20.417
lowerback -29.2433 52.4752 130.455
upperback 0.133592 -10.2981 -10.0161
thorax -0.956068 -8.45719 -20.0458
lowerneck -1.09114 24.6405 -9.18998
upperneck 1.71137 18.6678 -1.9407
head 175.228 -49.4817 2.80718
rclavicle -5.725e-014 6.36111e-014
rhumerus -15.2541 23.7497 -30.8974
rradius 43.4942
rwrist -10.2228
rhand -36.6113 -33.2772
rfingers 7.12502
rthumb -9.6996 -423.034
lclavicle 7.63333e-014 -8.0309e-014
lhumerus -47.1673 -1.90506 49.5873
lradius 13.3819
lwrist -0.152521
lhand -38.4658 12.2863
lfingers 7.12502
lthumb -11.4885 41.9515
rfemur 38.6549 -150.694 16.1431
rtibia 74.7402
rfoot -38.9105 -3.19748
rtoes -19.2239
lfemur -66.5177 14.7483 99.8022
ltibia 41.4992
lfoot -9.13875 -28.6048
ltoes -7.79392
190
root 7.38605 14.9052 -4.97235 35.3241 326.161 9.98022
lowerback -41.4746 46.6674 101.855
upperback 3.28624 -4.83107 -15.944
thorax 7.30185 -3.10053 -34.4454
lowerneck -1.24773 24.6535 -9.37618
upperneck 1.70246 18.7038 -1.98493
head 175.266 -48.4419 2.68027
rclavicle 5.08889e-014 -9.54166e-015
rhumerus -16.2973 25.4892 -31.7111
rradius 43.5045
rwrist -11.06
rhand -36.3059 -32.5952
rfingers 7.12502
rthumb -9.40493 -422.365
lclavicle 7.63333e-014 -8.0309e-014
lhumerus -47.1673 -1.90506 49.5873
lradius 13.3819
lwrist -0.152521
lhand -38.4658 12.2863
lfingers 7.12502
lthumb -11.4885 41.9515
rfemur 19.8224 -148.392 -21.4308
rtibia 74.1698
rfoot -33.5097 -7.54604
rtoes -19.0862
lfemur -77.3692 -9.34737 59.5674
ltibia 45.097
lfoot -7.68223 -17.4782
ltoes -9.80655
